<?xml version="1.0" encoding="UTF-8"?>
<svg width="32px" height="31px" viewBox="0 0 32 31" version="1.1" xmlns="http://www.w3.org/2000/svg" xmlns:xlink="http://www.w3.org/1999/xlink">
    <title>Artboard</title>
    <g id="Artboard" stroke="none" stroke-width="1" fill="none" fill-rule="evenodd">
        <g id="logo-color" fill-rule="nonzero">
            <path d="M15.5146,30.8824 C24.0831,30.8824 31.0293,23.9691 31.0293,15.4412 C31.0293,6.91326 24.0831,0 15.5146,0 C6.94614,0 0,6.91326 0,15.4412 C0,23.9691 6.94614,30.8824 15.5146,30.8824 Z" id="Path" fill="#DB6B34"/>
            <path d="M14.3009,24.3453 C13.1626,23.727 12.7388,22.2937 13.3601,21.1608 L20.7247,7.71601 C21.346,6.58309 22.786,6.16129 23.9243,6.77964 C25.0626,7.398 25.4865,8.83126 24.8652,9.96417 L17.5006,23.409 C16.8793,24.5419 15.4392,24.9637 14.3009,24.3453 Z" id="Path" fill="#FFFFFF"/>
            <path d="M8.68296,9.35938 C7.67557,9.98215 7.10531,11.0289 7.63341,12.1155 L13.2162,23.3121 C13.7798,24.4737 15.1977,24.9662 16.3648,24.4053 C17.532,23.8443 18.0268,22.4332 17.4632,21.2715 L12.0956,10.203" id="Path" fill="#FFFFFF"/>
            <path d="M8.37631,16.7753 L7.00724,18.9108 C6.31938,19.9134 4.99691,20.227 3.84086,19.8096 C3.60565,19.7257 3.19959,19.5733 2.79131,19.0875 C2.56942,18.8247 2.47401,18.3344 2.7669,17.8485 C2.77356,17.8375 3.18184,17.1971 3.18184,17.1971 L4.85934,14.6221 L7.7528,10.1611 C8.44066,9.15846 9.76313,8.84486 10.9192,9.26225 C11.1544,9.34617 11.5605,9.49855 11.9687,9.9844 C12.1906,10.2472 12.286,10.7375 11.9931,11.2233 C11.9865,11.2344 11.5782,11.8748 11.5782,11.8748 L8.37631,16.7753 Z" id="Path" fill="#FFFFFF"/>
            <path d="M25.096,20.4256 C26.4281,20.4256 27.508,19.3508 27.508,18.0251 C27.508,16.6993 26.4281,15.6245 25.096,15.6245 C23.764,15.6245 22.6841,16.6993 22.6841,18.0251 C22.6841,19.3508 23.764,20.4256 25.096,20.4256 Z" id="Path" fill="#FFFFFF"/>
        </g>
    </g>
</svg>